# xmcd CD database file
#
# Track frame offsets:
#	150
#	13125
#	30694
#	42588
#	56318
#	68155
#	81795
#	96453
#	110929
#	124806
#	140875
#	150849
#
# Disc length: 2261 seconds
#
# Revision: 1
# Processed by: cddbd v1.5.1PL0 Copyright (c) Steve Scherf et al.
# Submitted via: CDex 1.51
#
DISCID=a808d30c
DTITLE=Cole Porter - Cole's Jazz the Cole Porter Songbook (1/2)
DYEAR=2005
DGENRE=Jazz
TTITLE0=Night and Day - Charlie Parker
TTITLE1=Begin the Beguine - Art Tatum
TTITLE2=Ridin' high - Benny Goodman
TTITLE3=My Heart Belongs To Daddy - Ella Fitzgerald Chick Webb Orchestra
TTITLE4=Rosalie - Eroll Garner
TTITLE5=It Was Written In The Stars - Glenn Miller
TTITLE6=I've Go You Under My Skin - Stan Getz
TTITLE7=Easy To Love - Billie Holiday
TTITLE8=In The Still Of The Night - Django Reinhard
TTITLE9=What Is This Thing Called Love? - Sidney Bechet
TTITLE10=Love For Sale - Dinnah Washington
TTITLE11=All Through The Night -Clarke - Boland Big Band
EXTD=YEAR: 2005
EXTT0=
EXTT1=
EXTT2=
EXTT3=
EXTT4=
EXTT5=
EXTT6=
EXTT7=
EXTT8=
EXTT9=
EXTT10=
EXTT11=
PLAYORDER=
